<svg t="1766225120016" class="icon" viewBox="0 0 1024 1024" version="1.1" xmlns="http://www.w3.org/2000/svg" p-id="7505" width="256" height="256"><path d="M767.9936 1023.974401H256.0064A256.275193 256.275193 0 0 1 0.0128 767.9808V255.9936A256.300792 256.300792 0 0 1 256.0064 0h511.9872a256.300792 256.300792 0 0 1 255.9936 255.9936v511.9872a256.275193 256.275193 0 0 1-255.9936 255.993601zM435.20192 460.78848v76.79808l51.19872 25.59936v153.59616l-127.9968 25.59936v51.19872h307.19232v-51.19872l-127.9968-25.59936v-153.59616l51.19872-25.59936v-76.79808z m76.79808-127.9968a179.400315 179.400315 0 0 1 179.19552 179.19552 179.041924 179.041924 0 0 1-79.793205 149.116272l28.41529 42.597335A230.189445 230.189445 0 0 0 742.39424 511.9872a230.931827 230.931827 0 0 0-51.19872-144.738781 231.315817 231.315817 0 0 0-127.9968-79.972401V255.9936h-102.39744v31.282418a231.315817 231.315817 0 0 0-127.9968 79.972401A230.931827 230.931827 0 0 0 281.60576 511.9872a230.189445 230.189445 0 0 0 102.576635 191.713607l28.41529-42.597335A179.19552 179.19552 0 0 1 332.80448 511.9872a179.400315 179.400315 0 0 1 179.19552-179.19552z" p-id="7506" fill="#1296db"></path></svg>